<svg width="18" height="18" viewBox="0 0 18 18" fill="none" xmlns="http://www.w3.org/2000/svg">
<circle cx="9" cy="9" r="9" fill="#F672E1" fill-opacity="0.2"/>
<path d="M9.48767 10.2223C10.1855 10.0687 10.7932 9.72149 11.3074 9.17723C11.9753 8.47269 12.3125 7.62457 12.3125 6.65959C12.3125 6.02851 12.1522 5.4208 11.835 4.85317C11.5111 4.26883 11.0537 3.80805 10.4693 3.48416C9.89837 3.16361 9.29067 3 8.65959 3C8.02517 3 7.41413 3.16027 6.84649 3.47748C6.26884 3.80137 5.80805 4.25882 5.48082 4.84315L5.47748 4.84649C5.16028 5.4208 5 6.02851 5 6.65959C5 7.30736 5.16695 7.92842 5.49752 8.50942L5.50086 8.5161C5.84144 9.09709 6.30223 9.54786 6.8732 9.85505L6.87988 9.85839C7.20043 10.0287 7.51096 10.1489 7.81481 10.2223V11.2641H5.19033V12.937H7.81481V15.4413H9.48767V12.937H12.1055V11.2641H9.48767L9.48767 10.2223ZM8.65291 4.65616C8.99683 4.65616 9.32072 4.74298 9.65128 4.92329L9.65796 4.92663C9.97517 5.09358 10.2156 5.33065 10.3926 5.64786C10.5762 5.97842 10.6664 6.31233 10.6664 6.66293C10.6664 7.22723 10.4727 7.69135 10.0753 8.09204C9.68134 8.48604 9.21721 8.67971 8.65291 8.67971C8.09529 8.67971 7.62783 8.48938 7.23048 8.09204C6.83647 7.69469 6.64281 7.22723 6.64281 6.66293C6.64281 6.31233 6.73296 5.97842 6.91661 5.64786C7.09358 5.33065 7.33399 5.09358 7.64786 4.92329C7.9851 4.74298 8.31233 4.65616 8.65291 4.65616Z" fill="#F772E1"/>
</svg>
