<svg width="18" height="18" viewBox="0 0 18 18" fill="none" xmlns="http://www.w3.org/2000/svg">
<path d="M11.9971 4H10.2807C9.66313 4.65305 9.31689 5.01919 8.69933 5.67225V5.67225H10.8789L9.27905 7.3641C8.75012 7.01681 8.12606 6.81622 7.45767 6.81622C5.54805 6.81622 4 8.45324 4 10.4726C4 12.492 5.54805 14.129 7.45767 14.129C9.36729 14.129 10.9153 12.492 10.9153 10.4726C10.9153 9.76581 10.7257 9.10588 10.3972 8.54656L11.9971 6.85471V9.1596C12.6147 8.50654 12.9609 8.1404 13.5785 7.48735V5.67225V4H11.9971V4ZM7.45767 12.5266C6.38495 12.5266 5.51533 11.607 5.51533 10.4726C5.51533 9.33824 6.38495 8.41864 7.45767 8.41864C8.53039 8.41864 9.40001 9.33824 9.40001 10.4726C9.40001 11.607 8.53039 12.5266 7.45767 12.5266Z" fill="#8EB1E6"/>
<circle cx="9" cy="9" r="9" fill="#8EB1E5" fill-opacity="0.2"/>
</svg>
